<?xml version="1.0" encoding="UTF-8"?>
<!-- Generator: Adobe Illustrator 22.1.0, SVG Export Plug-In . SVG Version: 6.00 Build 0)  -->
<svg version="1.1" id="fill" xmlns="http://www.w3.org/2000/svg" xmlns:xlink="http://www.w3.org/1999/xlink" x="0px" y="0px" viewBox="0 0 64 64" style="enable-background:new 0 0 64 64;" xml:space="preserve">
<style type="text/css">
	.st0{fill:#0095E5;}
</style>
<path class="st0" d="M32,14c-1.7,0-3,1.3-3,3s1.3,3,3,3c1.7,0,3-1.3,3-3S33.7,14,32,14z M32,18c-0.6,0-1-0.4-1-1s0.4-1,1-1  s1,0.4,1,1S32.6,18,32,18z"/>
<path class="st0" d="M60.2,31.3L53.6,18c0.9-0.8,1.4-1.8,1.4-3c0-0.1,0-0.2,0-0.3l4.2-0.7l-0.3-2l-4.5,0.8c-1.2-1.8-3.7-2.3-5.5-1.1  C48,12.2,47.4,13,47.2,14l-8.4,1.4c-0.5-2-1.9-3.8-3.8-4.7V7.8c1.6-0.5,2.4-2.3,1.8-3.8c-0.4-1.2-1.6-2-2.8-2h-4c-1.7,0-3,1.3-3,3  c0,1.3,0.8,2.4,2,2.8v2.9c-2.4,1.2-4,3.6-4,6.3c0,0.2,0,0.4,0,0.6l-8.5,1.4c-1.1-1.9-3.5-2.6-5.4-1.6c-1.1,0.6-1.8,1.6-2,2.8L4.8,21  l0.3,2l4.1-0.7c0.2,0.7,0.6,1.2,1.1,1.7L3.8,37.2l1.8,0.9l6.6-13.2c0.6,0.1,1.1,0.1,1.7,0l6.6,13.2l1.8-0.9L15.6,24  c0.9-0.7,1.4-1.8,1.4-3l8.5-1.4c0.7,1.6,1.9,3,3.5,3.7V48c-4.6,0-8.4,3.4-8.9,8H17c-0.6,0-1,0.4-1,1v4c0,0.6,0.4,1,1,1h30  c0.6,0,1-0.4,1-1v-4c0-0.6-0.4-1-1-1h-3.1c-0.5-4.6-4.4-8-8.9-8V23.3c2.3-1.1,3.9-3.4,4-6l8.2-1.4c0.2,0.8,0.6,1.5,1.2,2l-6.7,13.3  l1.8,0.9l6.6-13.3c0.6,0.1,1.1,0.1,1.7,0l6.6,13.2L60.2,31.3z M11,21c0-1.1,0.9-2,2-2s2,0.9,2,2s-0.9,2-2,2S11,22.1,11,21z M30,4h4  c0.6,0,1,0.4,1,1s-0.4,1-1,1h-4c-0.6,0-1-0.4-1-1S29.4,4,30,4z M31,8h2v2.1c-0.7-0.1-1.3-0.1-2,0V8z M46,60H18v-2h28V60z M41.9,56  H22.1c0.5-3.4,3.4-6,6.9-6h6C38.5,50,41.4,52.6,41.9,56z M33,48h-2V23.9c0.7,0.1,1.3,0.1,2,0V48z M32,22c-2.8,0-5-2.2-5-5s2.2-5,5-5  s5,2.2,5,5C37,19.8,34.8,22,32,22z M49,15c0-1.1,0.9-2,2-2s2,0.9,2,2c0,1.1-0.9,2-2,2S49,16.1,49,15z"/>
<path class="st0" d="M3,37h20l0,0v0.9c0,1.7-1.4,3.1-3.1,3.1h0H6.1C4.4,41,3,39.6,3,37.9l0,0V37L3,37z"/>
<path class="st0" d="M41,31h20l0,0v0.9c0,1.7-1.4,3.1-3.1,3.1l0,0H44.1c-1.7,0-3.1-1.4-3.1-3.1v0V31L41,31z"/>
<rect x="17.4" y="57.5" class="st0" width="29.1" height="3"/>
</svg>